<svg xmlns="http://www.w3.org/2000/svg" viewBox="0 0 766.07 253.92"><defs><style>.cls-1{fill:#00acce;}.cls-2{fill:#ec663b;}</style></defs><g id="Layer_2" data-name="Layer 2"><g id="Ebene_2" data-name="Ebene 2"><path d="M238.13,165.29q0-43.29,0-86.58c0-1.68.44-2.08,2.06-2.08,22,.06,44,0,66,.12,8.57.06,17.11,1,25.23,4.06,5.9,2.25,11.06,5.5,13.47,11.74a76.56,76.56,0,0,1,3.73,15,183,183,0,0,1,2.2,23.13c.06,1.37-.36,1.7-1.69,1.69q-17.61-.08-35.22,0c-1.39,0-1.82-.32-1.9-1.78a56.08,56.08,0,0,0-2-13.24,10.35,10.35,0,0,0-7.16-7.28c-5.59-1.8-11.37-2.19-17.18-2.45-1.78-.08-3.56-.1-5.34-.24-1.15-.1-1.6.2-1.58,1.47.08,6.44.08,12.87.1,19.31s.06,12.88,0,19.32c-.4,34.88-.07,69.77-.14,104.66,0,1.45-.39,1.78-1.81,1.78q-18.39-.09-36.78,0c-1.52,0-1.89-.35-1.89-1.88Q238.16,208.66,238.13,165.29Z"/><path d="M363.92,165.13q0-43.18,0-86.39c0-1.66.4-2.06,2.06-2q19.86.12,39.71,0c1.41,0,1.81.34,1.81,1.79q-.06,86.81,0,173.63c0,1.44-.4,1.79-1.81,1.79q-19.93-.09-39.88,0c-1.52,0-1.89-.35-1.88-1.88Q364,208.59,363.92,165.13Z"/><path d="M158.34,179.86a37,37,0,0,0-19.11-24.32c-9.93-5.31-20.75-7.91-33.08-8-8.65-.05-17.44.06-25.93.15-5.27.05-10.55.11-15.82.14h-.79a29.41,29.41,0,0,1-13.72-3.42c-2.91-1.44-6.06-3.41-7.43-7.08a20.93,20.93,0,0,1,2.34-20.09c2.79-4.1,7.29-5.23,12.66-6.46,4.51-1,13.63-1,13.63-1,1.59,0,3.18,0,4.75,0,19.42-.23,39.17-.17,58.27-.13l15.2,0h0a2.87,2.87,0,0,0,2.12-.64,2.9,2.9,0,0,0,.64-2.12c-.08-9.1-.08-18.33,0-27.43a3,3,0,0,0-.68-2.24,2.63,2.63,0,0,0-2.21-.66q-19.53.21-39.06.26L86,77,66,77c-4.21,0-8.55,0-12.83.18a71.63,71.63,0,0,0-26.64,5.7C15.16,87.88,7.8,95.27,4,105.46A62.31,62.31,0,0,0,.37,122.63c-.88,12.25-.2,22.4,2.15,31.93,2.7,11,9,17.92,19.35,21.13a102,102,0,0,0,29,4.49c16.71.28,33.14.33,45.59.35A37.63,37.63,0,0,1,114,184.85a13.24,13.24,0,0,1,6.5,7.13,24.65,24.65,0,0,1,1.32,12.21c-.75,6.85-3.87,11.32-9.55,13.69-5.29,2.21-11,3.14-18.61,3.08-20.06-.2-40.44-.17-60.16-.16h-28a2.65,2.65,0,0,0-1.95.62,2.73,2.73,0,0,0-.61,2c.06,10.06.06,19,0,27.43a3.12,3.12,0,0,0,.67,2.33,3,3,0,0,0,2.21.69h0q22.29-.08,44.57,0h58.4c3.37,0,6.86,0,10.3-.13,13.61-.52,24.22-6.84,31.56-18.8C160.81,218.29,163.41,199.76,158.34,179.86Z"/><path d="M763.55,179.84a36.92,36.92,0,0,0-19.1-24.32c-9.92-5.3-20.74-7.91-33.08-8-8.64,0-17.42.05-25.92.14q-7.91.09-15.81.14h-.79a29.4,29.4,0,0,1-13.72-3.41c-2.91-1.44-6.06-3.41-7.43-7.09A20.91,20.91,0,0,1,650,117.28c2.79-4.1,7.29-5.23,12.66-6.46,4.51-1,13.63-1,13.63-1,1.58,0,3.17.06,4.74,0,19.42-.23,39.17-.17,58.26-.12l15.2,0h0a2.83,2.83,0,0,0,2.12-.64,2.87,2.87,0,0,0,.64-2.12c-.08-9.09-.08-18.32,0-27.42a3,3,0,0,0-.68-2.24,2.63,2.63,0,0,0-2.21-.66q-19.53.21-39,.26l-24.15,0-20,0c-4.2,0-8.54,0-12.82.18a71.67,71.67,0,0,0-26.64,5.7c-11.37,5-18.72,12.41-22.48,22.59a62.31,62.31,0,0,0-3.67,17.17c-.88,12.25-.2,22.39,2.15,31.92,2.7,11,9,17.92,19.35,21.13a102,102,0,0,0,29,4.49c16.71.28,33.14.33,45.58.35a37.57,37.57,0,0,1,17.47,4.32,13.22,13.22,0,0,1,6.51,7.13A24.52,24.52,0,0,1,727,204.17c-.74,6.84-3.87,11.32-9.55,13.68-5.28,2.21-11,3.14-18.6,3.08-20-.2-40.43-.17-60.15-.16h-28a2.65,2.65,0,0,0-2,.62,2.73,2.73,0,0,0-.61,2c.06,10.06.06,19,0,27.43a3.09,3.09,0,0,0,.67,2.32,3,3,0,0,0,2.21.69h0q22.29-.08,44.56,0h24q16.2,0,32.43,0H714c3.37,0,6.86,0,10.3-.14,13.6-.51,24.22-6.84,31.55-18.79C766,218.26,768.62,199.74,763.55,179.84Z"/><path d="M172.32,165.28q0-43.27,0-86.55c0-1.72.47-2,2.1-2q20.1.11,40.22,0c1.36,0,1.71.37,1.71,1.72q0,86.9,0,173.8c0,1.42-.45,1.68-1.75,1.68q-20.19-.08-40.39,0c-1.55,0-1.88-.4-1.88-1.9Q172.36,208.65,172.32,165.28Z"/><path d="M591.16,165.34q0,43.28.05,86.55c0,1.7-.46,2-2.09,2-29.11,0-58.22.05-87.33-.07-14-.06-27.85-1.72-41-7.15-8.9-3.68-16.89-8.56-22.07-17.08a58.07,58.07,0,0,1-7.16-19.77A108.51,108.51,0,0,1,430,190.13q-.06-55.68-.06-111.37c0-1.65.38-2.08,2.06-2.07,12.42.08,24.85,0,37.28,0,2.48,0,2.23-.34,2.23,2.16q0,54,0,107.92A68.51,68.51,0,0,0,473,201c2.26,10.6,9,16.32,19.35,18.46,7.73,1.59,15.55,1.32,23.36,1.29,9.2,0,18.4-.18,27.6-.28,1.73,0,3.45-.09,5.18,0,1,0,1.36-.28,1.24-1.26a8,8,0,0,1,0-1.2q0-69.66,0-139.3c0-1.5.27-2,1.92-2q18.81.12,37.62,0c1.75,0,2,.52,2,2.11Q591.13,122.06,591.16,165.34Z"/><path class="cls-1" d="M385.76,0a26.63,26.63,0,0,0-13.47,3.6c-4.69,2.84-9.39,5.19-9.39,5.19-20.57,10.29-49.51,12.76-64,13.35l-9,5.13L281.64,32c5.13-.19,8.27-.14,8.27-.14s44.51-.73,73,13.51c0,0,4.7,2.36,9.39,5.2a26.61,26.61,0,0,0,13.47,3.59v0a27.09,27.09,0,1,0,0-54.18Z"/><path class="cls-2" d="M289.91,22.31s-44.52.72-73-13.52c0,0-4.71-2.35-9.4-5.19A26.63,26.63,0,0,0,194.05,0a27.09,27.09,0,0,0,0,54.18v0a26.61,26.61,0,0,0,13.47-3.59c4.69-2.84,9.4-5.2,9.4-5.2,20.92-10.46,50.5-12.84,64.72-13.37l8.27-4.71,9-5.13C293.34,22.36,289.91,22.31,289.91,22.31Z"/></g></g></svg>