<?xml version="1.0" encoding="utf-8"?>
<!-- Generator: Adobe Illustrator 25.3.1, SVG Export Plug-In . SVG Version: 6.00 Build 0)  -->
<svg version="1.1" id="Layer_1" xmlns="http://www.w3.org/2000/svg" xmlns:xlink="http://www.w3.org/1999/xlink" x="0px" y="0px"
	 viewBox="0 0 595.28 841.89" style="enable-background:new 0 0 595.28 841.89;" xml:space="preserve">
<g>
	<path d="M320.95,569.1c6.98,1.43,16.05,4.78,15.96,15c0,4.87-1.82,8.69-5.54,11.37c-3.63,2.58-8.22,3.92-13.66,3.92
		c-9.84,0-16.53-3.82-20.06-11.37l10.7-6.02c1.43,4.11,4.49,6.21,9.36,6.21c4.4,0,6.59-1.34,6.59-4.11c0-2.58-3.82-4.01-8.69-5.26
		c-7.07-1.82-15.96-4.78-15.96-14.71c0-4.68,1.72-8.41,5.16-11.08c3.54-2.77,7.83-4.11,12.99-4.11c7.74,0,14.43,3.63,18.15,10.13
		l-10.51,5.73c-1.53-3.25-4.11-4.87-7.64-4.87c-3.15,0-5.54,1.53-5.54,3.92C312.26,566.43,316.08,567.86,320.95,569.1z"/>
	<path d="M339.16,598.05v-47.77h12.33v47.77H339.16z"/>
	<path d="M366.1,558.5c2.29-6.12,7.05-8.2,14.52-8.2v12.78c-3.73-0.48-7.17,0.29-10.13,2.29c-2.96,2.01-4.4,5.26-4.4,9.84v22.84
		h-12.33v-47.77h12.33V558.5z"/>
	<path d="M382.63,598.05v-47.77h12.33v47.77H382.63z"/>
	<path d="M429.74,550.28h12.33v47.77h-12.33v-5.35c-2.96,4.49-7.74,6.69-14.24,6.69c-5.26,0-9.56-1.72-12.99-5.26
		c-3.34-3.54-5.06-8.31-5.06-14.52v-29.33h12.33v27.8c0,6.4,3.73,9.84,9.46,9.84c6.4,0,10.51-3.92,10.51-11.85V550.28z"/>
	<path d="M467.38,569.1c6.98,1.43,16.05,4.78,15.96,15c0,4.87-1.82,8.69-5.54,11.37c-3.63,2.58-8.22,3.92-13.66,3.92
		c-9.84,0-16.53-3.82-20.07-11.37l10.7-6.02c1.43,4.11,4.49,6.21,9.36,6.21c4.4,0,6.59-1.34,6.59-4.11c0-2.58-3.82-4.01-8.7-5.26
		c-7.07-1.82-15.96-4.78-15.96-14.71c0-4.68,1.72-8.41,5.16-11.08c3.54-2.77,7.84-4.11,12.99-4.11c7.74,0,14.43,3.63,18.15,10.13
		l-10.51,5.73c-1.53-3.25-4.11-4.87-7.64-4.87c-3.15,0-5.54,1.53-5.54,3.92C458.69,566.43,462.51,567.86,467.38,569.1z"/>
</g>
<path d="M209.73,550.28v47.77h84.59v-47.77H209.73z M277.26,586.96c-3.73,0-7.07-1.6-9.41-4.14v0.02c0,0-5.79-6.91-15.75-6.91
	c-9.96,0-15.75,6.74-15.75,6.74v-0.02c-2.34,2.64-5.75,4.31-9.56,4.31c-7.07,0-12.79-5.73-12.79-12.79
	c0-7.07,5.73-12.79,12.79-12.79c3.81,0,7.22,1.67,9.56,4.31v-0.02c0,0,5.79,6.74,15.75,6.74c9.96,0,15.75-6.91,15.75-6.91v0.01
	c2.34-2.54,5.68-4.14,9.41-4.14c7.07,0,12.79,5.73,12.79,12.79C290.05,581.23,284.32,586.96,277.26,586.96z"/>
</svg>
